<?xml version="1.0" standalone="no"?>
<!DOCTYPE svg PUBLIC "-//W3C//DTD SVG 20010904//EN"
 "http://www.w3.org/TR/2001/REC-SVG-20010904/DTD/svg10.dtd">
<svg version="1.0" xmlns="http://www.w3.org/2000/svg"
 width="640.000000pt" height="640.000000pt" viewBox="0 0 640.000000 640.000000"
 preserveAspectRatio="xMidYMid meet">
<metadata>
Created by potrace 1.14, written by Peter Selinger 2001-2017
</metadata>
<g transform="translate(0.000000,640.000000) scale(0.100000,-0.100000)"
fill="#000000" stroke="none">
<path d="M3177 6091 c-244 -80 -451 -378 -721 -1033 -108 -263 -301 -767 -361
-945 -2 -7 -21 -15 -42 -19 -110 -20 -167 -81 -216 -230 -20 -60 -39 -128 -42
-150 -6 -41 -7 -42 -103 -87 -110 -51 -193 -79 -302 -103 -100 -22 -330 -22
-470 0 -214 34 -265 38 -384 34 -97 -4 -134 -10 -188 -30 -143 -53 -273 -157
-317 -252 -120 -260 129 -564 754 -919 83 -46 184 -101 225 -122 41 -21 85
-44 97 -52 l21 -14 -24 -72 c-66 -193 -86 -441 -49 -612 66 -311 273 -553 620
-725 269 -133 559 -209 973 -256 190 -22 723 -30 937 -15 477 34 858 122 1147
266 338 168 546 404 620 701 17 70 22 119 22 229 0 154 -16 257 -63 401 l-28
86 228 114 c272 135 415 219 547 319 157 117 261 240 314 367 17 42 22 73 22
153 1 129 -24 196 -98 271 -97 96 -223 122 -496 102 -260 -20 -616 -17 -720 5
-123 26 -283 82 -375 130 l-80 42 -6 50 c-4 28 -21 94 -39 149 -36 111 -79
169 -150 201 l-40 18 -49 156 c-140 442 -203 651 -210 693 -8 45 -6 51 56 155
80 135 100 190 114 307 17 138 -14 396 -61 503 -23 52 -67 77 -123 70 -53 -7
-71 -28 -126 -139 -26 -51 -58 -101 -72 -111 -26 -18 -28 -18 -63 -2 -21 10
-102 82 -181 161 -121 120 -156 148 -219 180 -96 47 -188 55 -279 25z m157
-109 c3 -5 -12 -16 -33 -25 -77 -34 -157 -130 -231 -275 -124 -248 -222 -611
-376 -1394 l-38 -198 -76 0 c-116 0 -340 41 -340 62 0 35 307 820 422 1077
198 446 370 680 546 743 50 18 117 23 126 10z m235 -1915 c29 -20 50 -44 67
-80 23 -51 24 -57 24 -338 l0 -287 -28 -53 c-22 -43 -38 -59 -81 -81 l-53 -28
-287 0 c-257 0 -290 2 -326 19 -80 37 -125 111 -125 206 l0 55 70 0 70 0 0
-50 c0 -37 5 -55 20 -70 19 -19 33 -20 290 -20 257 0 271 1 290 20 19 19 20
33 20 290 0 257 -1 271 -20 290 -19 19 -33 20 -290 20 -257 0 -271 -1 -290
-20 -15 -15 -20 -33 -20 -70 l0 -50 -70 0 -70 0 0 58 c0 101 56 187 138 212
15 5 162 8 328 7 l301 -2 42 -28z m-1322 -131 c76 -18 193 -44 261 -56 100
-19 122 -26 122 -40 0 -13 -11 -19 -39 -24 -45 -7 -94 -44 -117 -88 -16 -31
-16 -31 -82 -24 -37 4 -152 20 -255 36 -103 17 -190 30 -193 30 -8 0 2 39 27
106 23 60 62 94 111 94 15 0 89 -15 165 -34z m2131 25 c9 -5 -4 -14 -41 -29
-59 -22 -304 -96 -454 -136 l-93 -25 0 39 c0 37 2 39 38 46 118 20 297 59 381
84 101 29 147 35 169 21z m-1100 -151 l112 0 0 -54 0 -54 -42 -4 c-32 -3 -50
1 -70 15 -31 23 -69 17 -96 -13 -23 -28 -82 -28 -82 0 0 11 -16 37 -35 59 -52
57 -48 65 33 58 37 -4 118 -7 180 -7z m-304 -142 c8 -13 8 -23 0 -35 -10 -16
-32 -18 -189 -21 -182 -3 -205 2 -205 37 0 38 18 42 204 39 158 -3 180 -5 190
-20z m-2127 -252 c48 -9 138 -20 200 -25 63 -6 126 -17 142 -26 17 -8 126 -73
244 -144 354 -215 601 -334 887 -430 516 -173 1067 -223 1535 -140 226 41 421
99 765 229 188 71 392 141 397 137 1 -2 -16 -14 -40 -27 -23 -13 -87 -50 -142
-83 -296 -178 -804 -340 -1260 -403 -199 -28 -591 -25 -785 5 -453 69 -908
222 -1223 410 -523 311 -979 447 -1223 365 -91 -30 -164 -106 -186 -193 l-12
-46 -12 30 c-52 121 53 262 249 337 97 37 262 38 464 4z m918 -735 c333 -146
710 -252 1075 -303 126 -17 592 -17 720 0 384 53 760 156 1090 298 l125 54 54
-57 c207 -219 366 -524 416 -798 21 -110 16 -307 -10 -405 -110 -418 -544
-700 -1256 -814 -235 -38 -347 -47 -689 -53 -428 -7 -716 17 -1044 88 -493
108 -844 320 -991 600 -70 133 -96 242 -97 399 0 254 84 504 262 772 70 107
204 268 221 268 6 0 61 -22 124 -49z"/>
<path d="M1963 1867 c-44 -17 -51 -27 -19 -27 17 0 39 -11 57 -29 46 -46 37
-106 -21 -136 -72 -37 -143 34 -116 115 15 44 -20 4 -50 -57 -104 -212 86
-436 312 -368 138 41 215 193 172 337 -15 50 -79 123 -132 150 -49 25 -156 33
-203 15z m72 -242 c0 -23 -34 -33 -45 -14 -13 20 1 40 24 37 13 -2 21 -10 21
-23z"/>
<path d="M4270 1863 l-45 -17 35 -7 c39 -8 80 -49 80 -80 0 -34 -28 -76 -60
-89 -60 -25 -130 35 -116 99 l7 26 -21 -25 c-11 -14 -27 -49 -36 -79 -54 -179
96 -357 282 -338 206 21 306 269 173 430 -70 85 -196 118 -299 80z m75 -238
c0 -22 -31 -33 -47 -17 -17 17 -1 44 24 40 15 -2 23 -10 23 -23z"/>
<path d="M2925 1586 c-17 -7 -44 -28 -59 -47 -27 -32 -28 -37 -24 -119 3 -69
10 -98 35 -152 39 -82 105 -151 181 -186 50 -23 69 -27 152 -27 83 1 102 4
151 28 105 51 186 164 210 293 21 112 -6 179 -85 209 -49 19 -86 13 -178 -30
-71 -33 -124 -32 -207 5 -84 37 -136 44 -176 26z m247 -311 c36 -30 48 -31 81
-5 31 25 78 26 107 2 28 -23 22 -34 -38 -69 -87 -51 -212 -33 -281 41 l-24 25
24 9 c70 27 96 27 131 -3z"/>
</g>
</svg>
